<mxfile host="app.diagrams.net" agent="Mozilla/5.0 (X11; Linux x86_64; rv:140.0) Gecko/20100101 Firefox/140.0" version="27.1.1">
  <diagram name="Page-1" id="7FWG2CZ4CCYwOiV9K0rB">
    <mxGraphModel dx="1188" dy="688" grid="1" gridSize="10" guides="1" tooltips="1" connect="1" arrows="1" fold="1" page="1" pageScale="1" pageWidth="850" pageHeight="1100" math="0" shadow="0">
      <root>
        <mxCell id="0" />
        <mxCell id="1" parent="0" />
        <mxCell id="CTz6yxLjd2i6vr5-UhvL-157" style="edgeStyle=orthogonalEdgeStyle;rounded=0;orthogonalLoop=1;jettySize=auto;html=1;exitX=0.5;exitY=1;exitDx=0;exitDy=0;entryX=0.5;entryY=0;entryDx=0;entryDy=0;" edge="1" parent="1" source="CTz6yxLjd2i6vr5-UhvL-9" target="CTz6yxLjd2i6vr5-UhvL-69">
          <mxGeometry relative="1" as="geometry" />
        </mxCell>
        <mxCell id="CTz6yxLjd2i6vr5-UhvL-9" value="Start" style="rounded=1;whiteSpace=wrap;html=1;" vertex="1" parent="1">
          <mxGeometry x="560" y="60" width="120" height="60" as="geometry" />
        </mxCell>
        <mxCell id="CTz6yxLjd2i6vr5-UhvL-40" value="Create" style="text;html=1;align=center;verticalAlign=middle;whiteSpace=wrap;rounded=0;" vertex="1" parent="1">
          <mxGeometry x="590" y="20" width="60" height="30" as="geometry" />
        </mxCell>
        <mxCell id="CTz6yxLjd2i6vr5-UhvL-51" style="edgeStyle=orthogonalEdgeStyle;rounded=0;orthogonalLoop=1;jettySize=auto;html=1;exitX=0.5;exitY=1;exitDx=0;exitDy=0;entryX=0.5;entryY=0;entryDx=0;entryDy=0;" edge="1" parent="1" source="CTz6yxLjd2i6vr5-UhvL-45" target="CTz6yxLjd2i6vr5-UhvL-46">
          <mxGeometry relative="1" as="geometry" />
        </mxCell>
        <mxCell id="CTz6yxLjd2i6vr5-UhvL-45" value="Delete real save files" style="rounded=0;whiteSpace=wrap;html=1;" vertex="1" parent="1">
          <mxGeometry x="220" y="140" width="120" height="60" as="geometry" />
        </mxCell>
        <mxCell id="CTz6yxLjd2i6vr5-UhvL-52" style="edgeStyle=orthogonalEdgeStyle;rounded=0;orthogonalLoop=1;jettySize=auto;html=1;exitX=0.5;exitY=1;exitDx=0;exitDy=0;" edge="1" parent="1" source="CTz6yxLjd2i6vr5-UhvL-46" target="CTz6yxLjd2i6vr5-UhvL-47">
          <mxGeometry relative="1" as="geometry" />
        </mxCell>
        <mxCell id="CTz6yxLjd2i6vr5-UhvL-46" value="Copy save slot files" style="rounded=0;whiteSpace=wrap;html=1;" vertex="1" parent="1">
          <mxGeometry x="220" y="220" width="120" height="60" as="geometry" />
        </mxCell>
        <mxCell id="CTz6yxLjd2i6vr5-UhvL-54" style="edgeStyle=orthogonalEdgeStyle;rounded=0;orthogonalLoop=1;jettySize=auto;html=1;exitX=0.5;exitY=1;exitDx=0;exitDy=0;entryX=0.5;entryY=0;entryDx=0;entryDy=0;" edge="1" parent="1" source="CTz6yxLjd2i6vr5-UhvL-47" target="CTz6yxLjd2i6vr5-UhvL-53">
          <mxGeometry relative="1" as="geometry" />
        </mxCell>
        <mxCell id="CTz6yxLjd2i6vr5-UhvL-47" value="Set loaded to true" style="rounded=0;whiteSpace=wrap;html=1;" vertex="1" parent="1">
          <mxGeometry x="220" y="300" width="120" height="60" as="geometry" />
        </mxCell>
        <mxCell id="CTz6yxLjd2i6vr5-UhvL-155" style="edgeStyle=orthogonalEdgeStyle;rounded=0;orthogonalLoop=1;jettySize=auto;html=1;exitX=0.5;exitY=1;exitDx=0;exitDy=0;entryX=0.5;entryY=0;entryDx=0;entryDy=0;" edge="1" parent="1" source="CTz6yxLjd2i6vr5-UhvL-48" target="CTz6yxLjd2i6vr5-UhvL-45">
          <mxGeometry relative="1" as="geometry" />
        </mxCell>
        <mxCell id="CTz6yxLjd2i6vr5-UhvL-48" value="Start" style="rounded=1;whiteSpace=wrap;html=1;" vertex="1" parent="1">
          <mxGeometry x="220" y="60" width="120" height="60" as="geometry" />
        </mxCell>
        <mxCell id="CTz6yxLjd2i6vr5-UhvL-53" value="End" style="rounded=1;whiteSpace=wrap;html=1;" vertex="1" parent="1">
          <mxGeometry x="220" y="380" width="120" height="60" as="geometry" />
        </mxCell>
        <mxCell id="CTz6yxLjd2i6vr5-UhvL-55" value="&lt;div&gt;Load&lt;br&gt;loaded = false&lt;/div&gt;" style="text;html=1;align=center;verticalAlign=middle;whiteSpace=wrap;rounded=0;" vertex="1" parent="1">
          <mxGeometry x="230" y="20" width="100" height="30" as="geometry" />
        </mxCell>
        <mxCell id="CTz6yxLjd2i6vr5-UhvL-56" value="&lt;div&gt;Unload&lt;br&gt;loaded = true&lt;/div&gt;" style="text;html=1;align=center;verticalAlign=middle;whiteSpace=wrap;rounded=0;" vertex="1" parent="1">
          <mxGeometry x="400" y="20" width="100" height="30" as="geometry" />
        </mxCell>
        <mxCell id="CTz6yxLjd2i6vr5-UhvL-58" style="edgeStyle=orthogonalEdgeStyle;rounded=0;orthogonalLoop=1;jettySize=auto;html=1;exitX=0.5;exitY=1;exitDx=0;exitDy=0;entryX=0.5;entryY=0;entryDx=0;entryDy=0;" edge="1" parent="1" source="CTz6yxLjd2i6vr5-UhvL-59" target="CTz6yxLjd2i6vr5-UhvL-61">
          <mxGeometry relative="1" as="geometry" />
        </mxCell>
        <mxCell id="CTz6yxLjd2i6vr5-UhvL-59" value="Copy real save files to slot" style="rounded=0;whiteSpace=wrap;html=1;" vertex="1" parent="1">
          <mxGeometry x="390" y="140" width="120" height="60" as="geometry" />
        </mxCell>
        <mxCell id="CTz6yxLjd2i6vr5-UhvL-60" style="edgeStyle=orthogonalEdgeStyle;rounded=0;orthogonalLoop=1;jettySize=auto;html=1;exitX=0.5;exitY=1;exitDx=0;exitDy=0;" edge="1" parent="1" source="CTz6yxLjd2i6vr5-UhvL-61" target="CTz6yxLjd2i6vr5-UhvL-63">
          <mxGeometry relative="1" as="geometry" />
        </mxCell>
        <mxCell id="CTz6yxLjd2i6vr5-UhvL-61" value="Delete real save files&amp;nbsp;" style="rounded=0;whiteSpace=wrap;html=1;" vertex="1" parent="1">
          <mxGeometry x="390" y="220" width="120" height="60" as="geometry" />
        </mxCell>
        <mxCell id="CTz6yxLjd2i6vr5-UhvL-62" style="edgeStyle=orthogonalEdgeStyle;rounded=0;orthogonalLoop=1;jettySize=auto;html=1;exitX=0.5;exitY=1;exitDx=0;exitDy=0;entryX=0.5;entryY=0;entryDx=0;entryDy=0;" edge="1" parent="1" source="CTz6yxLjd2i6vr5-UhvL-63" target="CTz6yxLjd2i6vr5-UhvL-66">
          <mxGeometry relative="1" as="geometry" />
        </mxCell>
        <mxCell id="CTz6yxLjd2i6vr5-UhvL-63" value="Set loaded to false" style="rounded=0;whiteSpace=wrap;html=1;" vertex="1" parent="1">
          <mxGeometry x="390" y="300" width="120" height="60" as="geometry" />
        </mxCell>
        <mxCell id="CTz6yxLjd2i6vr5-UhvL-64" style="edgeStyle=orthogonalEdgeStyle;rounded=0;orthogonalLoop=1;jettySize=auto;html=1;exitX=0.5;exitY=1;exitDx=0;exitDy=0;entryX=0.5;entryY=0;entryDx=0;entryDy=0;" edge="1" parent="1" source="CTz6yxLjd2i6vr5-UhvL-65" target="CTz6yxLjd2i6vr5-UhvL-59">
          <mxGeometry relative="1" as="geometry" />
        </mxCell>
        <mxCell id="CTz6yxLjd2i6vr5-UhvL-65" value="Start" style="rounded=1;whiteSpace=wrap;html=1;" vertex="1" parent="1">
          <mxGeometry x="390" y="60" width="120" height="60" as="geometry" />
        </mxCell>
        <mxCell id="CTz6yxLjd2i6vr5-UhvL-66" value="End" style="rounded=1;whiteSpace=wrap;html=1;" vertex="1" parent="1">
          <mxGeometry x="390" y="380" width="120" height="60" as="geometry" />
        </mxCell>
        <mxCell id="CTz6yxLjd2i6vr5-UhvL-71" style="edgeStyle=orthogonalEdgeStyle;rounded=0;orthogonalLoop=1;jettySize=auto;html=1;exitX=0.5;exitY=1;exitDx=0;exitDy=0;entryX=0.5;entryY=0;entryDx=0;entryDy=0;" edge="1" parent="1" source="CTz6yxLjd2i6vr5-UhvL-69" target="CTz6yxLjd2i6vr5-UhvL-70">
          <mxGeometry relative="1" as="geometry" />
        </mxCell>
        <mxCell id="CTz6yxLjd2i6vr5-UhvL-69" value="Gather save metadata" style="shape=parallelogram;perimeter=parallelogramPerimeter;whiteSpace=wrap;html=1;fixedSize=1;" vertex="1" parent="1">
          <mxGeometry x="560" y="140" width="120" height="60" as="geometry" />
        </mxCell>
        <mxCell id="CTz6yxLjd2i6vr5-UhvL-158" style="edgeStyle=orthogonalEdgeStyle;rounded=0;orthogonalLoop=1;jettySize=auto;html=1;exitX=0.5;exitY=1;exitDx=0;exitDy=0;entryX=0.5;entryY=0;entryDx=0;entryDy=0;" edge="1" parent="1" source="CTz6yxLjd2i6vr5-UhvL-70" target="CTz6yxLjd2i6vr5-UhvL-74">
          <mxGeometry relative="1" as="geometry" />
        </mxCell>
        <mxCell id="CTz6yxLjd2i6vr5-UhvL-70" value="Create save slot directory" style="rounded=0;whiteSpace=wrap;html=1;" vertex="1" parent="1">
          <mxGeometry x="560" y="220" width="120" height="60" as="geometry" />
        </mxCell>
        <mxCell id="CTz6yxLjd2i6vr5-UhvL-74" value="End" style="rounded=1;whiteSpace=wrap;html=1;" vertex="1" parent="1">
          <mxGeometry x="560" y="300" width="120" height="60" as="geometry" />
        </mxCell>
        <mxCell id="CTz6yxLjd2i6vr5-UhvL-80" style="edgeStyle=orthogonalEdgeStyle;rounded=0;orthogonalLoop=1;jettySize=auto;html=1;exitX=0.5;exitY=1;exitDx=0;exitDy=0;entryX=0.5;entryY=0;entryDx=0;entryDy=0;" edge="1" parent="1" source="CTz6yxLjd2i6vr5-UhvL-77" target="CTz6yxLjd2i6vr5-UhvL-78">
          <mxGeometry relative="1" as="geometry" />
        </mxCell>
        <mxCell id="CTz6yxLjd2i6vr5-UhvL-77" value="Start" style="rounded=1;whiteSpace=wrap;html=1;" vertex="1" parent="1">
          <mxGeometry x="900" y="60" width="120" height="60" as="geometry" />
        </mxCell>
        <mxCell id="CTz6yxLjd2i6vr5-UhvL-85" style="edgeStyle=orthogonalEdgeStyle;rounded=0;orthogonalLoop=1;jettySize=auto;html=1;exitX=0.5;exitY=1;exitDx=0;exitDy=0;entryX=0.5;entryY=0;entryDx=0;entryDy=0;" edge="1" parent="1" source="CTz6yxLjd2i6vr5-UhvL-78" target="CTz6yxLjd2i6vr5-UhvL-87">
          <mxGeometry relative="1" as="geometry">
            <mxPoint x="960" y="230" as="targetPoint" />
          </mxGeometry>
        </mxCell>
        <mxCell id="CTz6yxLjd2i6vr5-UhvL-78" value="Delete save slot folder" style="rounded=0;whiteSpace=wrap;html=1;" vertex="1" parent="1">
          <mxGeometry x="900" y="140" width="120" height="60" as="geometry" />
        </mxCell>
        <mxCell id="CTz6yxLjd2i6vr5-UhvL-79" value="Delete" style="text;html=1;align=center;verticalAlign=middle;whiteSpace=wrap;rounded=0;" vertex="1" parent="1">
          <mxGeometry x="930" y="20" width="60" height="30" as="geometry" />
        </mxCell>
        <mxCell id="CTz6yxLjd2i6vr5-UhvL-87" value="Is save loaded?" style="rhombus;whiteSpace=wrap;html=1;" vertex="1" parent="1">
          <mxGeometry x="900" y="220" width="120" height="60" as="geometry" />
        </mxCell>
        <mxCell id="CTz6yxLjd2i6vr5-UhvL-88" value="Delete real save files" style="rounded=0;whiteSpace=wrap;html=1;" vertex="1" parent="1">
          <mxGeometry x="1070" y="280" width="120" height="60" as="geometry" />
        </mxCell>
        <mxCell id="CTz6yxLjd2i6vr5-UhvL-102" value="&lt;div&gt;Import&lt;/div&gt;&lt;div&gt;Save slot len: 0&lt;/div&gt;" style="text;html=1;align=center;verticalAlign=middle;whiteSpace=wrap;rounded=0;" vertex="1" parent="1">
          <mxGeometry x="745" y="20" width="90" height="30" as="geometry" />
        </mxCell>
        <mxCell id="CTz6yxLjd2i6vr5-UhvL-159" style="edgeStyle=orthogonalEdgeStyle;rounded=0;orthogonalLoop=1;jettySize=auto;html=1;exitX=0.5;exitY=1;exitDx=0;exitDy=0;entryX=0.5;entryY=0;entryDx=0;entryDy=0;" edge="1" parent="1" source="CTz6yxLjd2i6vr5-UhvL-103" target="CTz6yxLjd2i6vr5-UhvL-118">
          <mxGeometry relative="1" as="geometry" />
        </mxCell>
        <mxCell id="CTz6yxLjd2i6vr5-UhvL-103" value="Start" style="rounded=1;whiteSpace=wrap;html=1;" vertex="1" parent="1">
          <mxGeometry x="730" y="60" width="120" height="60" as="geometry" />
        </mxCell>
        <mxCell id="CTz6yxLjd2i6vr5-UhvL-121" style="edgeStyle=orthogonalEdgeStyle;rounded=0;orthogonalLoop=1;jettySize=auto;html=1;exitX=0.5;exitY=1;exitDx=0;exitDy=0;entryX=0.5;entryY=0;entryDx=0;entryDy=0;" edge="1" parent="1" source="CTz6yxLjd2i6vr5-UhvL-118" target="CTz6yxLjd2i6vr5-UhvL-120">
          <mxGeometry relative="1" as="geometry" />
        </mxCell>
        <mxCell id="CTz6yxLjd2i6vr5-UhvL-118" value="Create" style="shape=process;whiteSpace=wrap;html=1;backgroundOutline=1;" vertex="1" parent="1">
          <mxGeometry x="730" y="140" width="120" height="60" as="geometry" />
        </mxCell>
        <mxCell id="CTz6yxLjd2i6vr5-UhvL-124" style="edgeStyle=orthogonalEdgeStyle;rounded=0;orthogonalLoop=1;jettySize=auto;html=1;exitX=0.5;exitY=1;exitDx=0;exitDy=0;entryX=0.5;entryY=0;entryDx=0;entryDy=0;" edge="1" parent="1" source="CTz6yxLjd2i6vr5-UhvL-120" target="CTz6yxLjd2i6vr5-UhvL-123">
          <mxGeometry relative="1" as="geometry" />
        </mxCell>
        <mxCell id="CTz6yxLjd2i6vr5-UhvL-120" value="Copy real save files to slot" style="rounded=0;whiteSpace=wrap;html=1;" vertex="1" parent="1">
          <mxGeometry x="730" y="220" width="120" height="60" as="geometry" />
        </mxCell>
        <mxCell id="CTz6yxLjd2i6vr5-UhvL-128" style="edgeStyle=orthogonalEdgeStyle;rounded=0;orthogonalLoop=1;jettySize=auto;html=1;exitX=0.5;exitY=1;exitDx=0;exitDy=0;entryX=0.5;entryY=0;entryDx=0;entryDy=0;" edge="1" parent="1" source="CTz6yxLjd2i6vr5-UhvL-123" target="CTz6yxLjd2i6vr5-UhvL-127">
          <mxGeometry relative="1" as="geometry" />
        </mxCell>
        <mxCell id="CTz6yxLjd2i6vr5-UhvL-123" value="Set loaded to true" style="rounded=0;whiteSpace=wrap;html=1;" vertex="1" parent="1">
          <mxGeometry x="730" y="300" width="120" height="60" as="geometry" />
        </mxCell>
        <mxCell id="CTz6yxLjd2i6vr5-UhvL-127" value="End" style="rounded=1;whiteSpace=wrap;html=1;" vertex="1" parent="1">
          <mxGeometry x="730" y="380" width="120" height="60" as="geometry" />
        </mxCell>
        <mxCell id="CTz6yxLjd2i6vr5-UhvL-136" value="" style="endArrow=classic;html=1;rounded=0;exitX=0.5;exitY=1;exitDx=0;exitDy=0;entryX=0;entryY=0.5;entryDx=0;entryDy=0;edgeStyle=orthogonalEdgeStyle;" edge="1" parent="1" source="CTz6yxLjd2i6vr5-UhvL-87" target="CTz6yxLjd2i6vr5-UhvL-88">
          <mxGeometry relative="1" as="geometry">
            <mxPoint x="1010" y="330" as="sourcePoint" />
            <mxPoint x="1120" y="360" as="targetPoint" />
          </mxGeometry>
        </mxCell>
        <mxCell id="CTz6yxLjd2i6vr5-UhvL-137" value="Yes" style="edgeLabel;resizable=0;html=1;;align=center;verticalAlign=middle;" connectable="0" vertex="1" parent="CTz6yxLjd2i6vr5-UhvL-136">
          <mxGeometry relative="1" as="geometry" />
        </mxCell>
        <mxCell id="CTz6yxLjd2i6vr5-UhvL-145" style="edgeStyle=orthogonalEdgeStyle;rounded=0;orthogonalLoop=1;jettySize=auto;html=1;exitX=0.5;exitY=1;exitDx=0;exitDy=0;entryX=0.5;entryY=0;entryDx=0;entryDy=0;" edge="1" parent="1" source="CTz6yxLjd2i6vr5-UhvL-138" target="CTz6yxLjd2i6vr5-UhvL-144">
          <mxGeometry relative="1" as="geometry" />
        </mxCell>
        <mxCell id="CTz6yxLjd2i6vr5-UhvL-138" value="Delete save slot directory" style="rounded=0;whiteSpace=wrap;html=1;" vertex="1" parent="1">
          <mxGeometry x="900" y="340" width="120" height="60" as="geometry" />
        </mxCell>
        <mxCell id="CTz6yxLjd2i6vr5-UhvL-139" value="" style="endArrow=classic;html=1;rounded=0;" edge="1" parent="1" target="CTz6yxLjd2i6vr5-UhvL-138">
          <mxGeometry relative="1" as="geometry">
            <mxPoint x="960" y="320" as="sourcePoint" />
            <mxPoint x="900" y="330" as="targetPoint" />
          </mxGeometry>
        </mxCell>
        <mxCell id="CTz6yxLjd2i6vr5-UhvL-140" value="No" style="edgeLabel;resizable=0;html=1;;align=center;verticalAlign=middle;" connectable="0" vertex="1" parent="CTz6yxLjd2i6vr5-UhvL-139">
          <mxGeometry relative="1" as="geometry" />
        </mxCell>
        <mxCell id="CTz6yxLjd2i6vr5-UhvL-141" style="edgeStyle=orthogonalEdgeStyle;rounded=0;orthogonalLoop=1;jettySize=auto;html=1;exitX=0.5;exitY=1;exitDx=0;exitDy=0;entryX=1.018;entryY=0.644;entryDx=0;entryDy=0;entryPerimeter=0;" edge="1" parent="1" source="CTz6yxLjd2i6vr5-UhvL-88" target="CTz6yxLjd2i6vr5-UhvL-138">
          <mxGeometry relative="1" as="geometry" />
        </mxCell>
        <mxCell id="CTz6yxLjd2i6vr5-UhvL-144" value="End" style="rounded=1;whiteSpace=wrap;html=1;" vertex="1" parent="1">
          <mxGeometry x="900" y="420" width="120" height="60" as="geometry" />
        </mxCell>
        <mxCell id="CTz6yxLjd2i6vr5-UhvL-147" value="&lt;h1 style=&quot;margin-top: 0px;&quot;&gt;Commands&lt;/h1&gt;&lt;p&gt;The commands with criteria will be impossible to run if it is not met, due to assert! calls.&lt;/p&gt;" style="text;html=1;whiteSpace=wrap;overflow=hidden;rounded=0;" vertex="1" parent="1">
          <mxGeometry x="10" width="180" height="120" as="geometry" />
        </mxCell>
      </root>
    </mxGraphModel>
  </diagram>
</mxfile>
